<mxfile host="app.diagrams.net" modified="2023-11-25T18:56:54.237Z" agent="Mozilla/5.0 (Windows NT 10.0; Win64; x64) AppleWebKit/537.36 (KHTML, like Gecko) Chrome/119.0.0.0 Safari/537.36" etag="Tyvo4AwIC1GSsc8mGRAs" version="22.1.4" type="device">
  <diagram name="Page-1" id="7adHdc89KNpR47SBOgTu">
    <mxGraphModel dx="794" dy="1593" grid="1" gridSize="10" guides="1" tooltips="1" connect="1" arrows="1" fold="1" page="1" pageScale="1" pageWidth="827" pageHeight="1169" math="0" shadow="0">
      <root>
        <mxCell id="0" />
        <mxCell id="1" parent="0" />
        <mxCell id="njZE0WP8KrkA1C3F5cwu-2" value="" style="whiteSpace=wrap;html=1;aspect=fixed;" vertex="1" parent="1">
          <mxGeometry x="160" width="120" height="120" as="geometry" />
        </mxCell>
        <mxCell id="njZE0WP8KrkA1C3F5cwu-3" value="" style="whiteSpace=wrap;html=1;aspect=fixed;" vertex="1" parent="1">
          <mxGeometry x="280" y="120" width="120" height="120" as="geometry" />
        </mxCell>
        <mxCell id="njZE0WP8KrkA1C3F5cwu-4" value="" style="whiteSpace=wrap;html=1;aspect=fixed;" vertex="1" parent="1">
          <mxGeometry x="400" y="240" width="120" height="120" as="geometry" />
        </mxCell>
        <mxCell id="njZE0WP8KrkA1C3F5cwu-5" value="" style="whiteSpace=wrap;html=1;aspect=fixed;" vertex="1" parent="1">
          <mxGeometry x="520" y="360" width="120" height="120" as="geometry" />
        </mxCell>
        <mxCell id="njZE0WP8KrkA1C3F5cwu-6" value="&lt;b&gt;Level 1&lt;/b&gt;" style="text;html=1;strokeColor=none;fillColor=none;align=center;verticalAlign=middle;whiteSpace=wrap;rounded=0;" vertex="1" parent="1">
          <mxGeometry width="60" height="30" as="geometry" />
        </mxCell>
        <mxCell id="njZE0WP8KrkA1C3F5cwu-7" value="&lt;b&gt;Level 4&lt;/b&gt;" style="text;html=1;strokeColor=none;fillColor=none;align=center;verticalAlign=middle;whiteSpace=wrap;rounded=0;" vertex="1" parent="1">
          <mxGeometry y="360" width="60" height="30" as="geometry" />
        </mxCell>
        <mxCell id="njZE0WP8KrkA1C3F5cwu-8" value="&lt;b&gt;Level 3&lt;/b&gt;" style="text;html=1;strokeColor=none;fillColor=none;align=center;verticalAlign=middle;whiteSpace=wrap;rounded=0;" vertex="1" parent="1">
          <mxGeometry y="240" width="60" height="30" as="geometry" />
        </mxCell>
        <mxCell id="njZE0WP8KrkA1C3F5cwu-9" value="&lt;b&gt;Level 2&lt;/b&gt;" style="text;html=1;strokeColor=none;fillColor=none;align=center;verticalAlign=middle;whiteSpace=wrap;rounded=0;" vertex="1" parent="1">
          <mxGeometry y="120" width="60" height="30" as="geometry" />
        </mxCell>
        <mxCell id="njZE0WP8KrkA1C3F5cwu-10" value="Board Member&lt;br&gt;&lt;br&gt;This is applicable if the institude is a part of Group" style="text;html=1;strokeColor=none;fillColor=none;align=center;verticalAlign=middle;whiteSpace=wrap;rounded=0;" vertex="1" parent="1">
          <mxGeometry x="160" width="90" height="90" as="geometry" />
        </mxCell>
        <mxCell id="njZE0WP8KrkA1C3F5cwu-11" value="Admin" style="text;html=1;strokeColor=none;fillColor=none;align=center;verticalAlign=middle;whiteSpace=wrap;rounded=0;" vertex="1" parent="1">
          <mxGeometry x="280" y="120" width="60" height="30" as="geometry" />
        </mxCell>
        <mxCell id="njZE0WP8KrkA1C3F5cwu-12" value="Staff" style="text;html=1;strokeColor=none;fillColor=none;align=center;verticalAlign=middle;whiteSpace=wrap;rounded=0;" vertex="1" parent="1">
          <mxGeometry x="400" y="240" width="60" height="30" as="geometry" />
        </mxCell>
        <mxCell id="njZE0WP8KrkA1C3F5cwu-13" value="Student" style="text;html=1;strokeColor=none;fillColor=none;align=center;verticalAlign=middle;whiteSpace=wrap;rounded=0;" vertex="1" parent="1">
          <mxGeometry x="520" y="360" width="60" height="30" as="geometry" />
        </mxCell>
        <mxCell id="njZE0WP8KrkA1C3F5cwu-14" value="Will update only his/her record" style="text;html=1;strokeColor=none;fillColor=none;align=center;verticalAlign=middle;whiteSpace=wrap;rounded=0;" vertex="1" parent="1">
          <mxGeometry x="520" y="390" width="90" height="70" as="geometry" />
        </mxCell>
        <mxCell id="njZE0WP8KrkA1C3F5cwu-15" value="Will do all manage student" style="text;html=1;strokeColor=none;fillColor=none;align=center;verticalAlign=middle;whiteSpace=wrap;rounded=0;" vertex="1" parent="1">
          <mxGeometry x="400" y="270" width="80" height="60" as="geometry" />
        </mxCell>
        <mxCell id="njZE0WP8KrkA1C3F5cwu-16" value="Will do administrate level of task" style="text;html=1;strokeColor=none;fillColor=none;align=center;verticalAlign=middle;whiteSpace=wrap;rounded=0;" vertex="1" parent="1">
          <mxGeometry x="280" y="150" width="90" height="80" as="geometry" />
        </mxCell>
        <mxCell id="njZE0WP8KrkA1C3F5cwu-21" value="- create admin&lt;br&gt;- delete admin&lt;br&gt;- update admin&lt;br&gt;- assign admin to org&lt;br&gt;-" style="text;html=1;strokeColor=none;fillColor=none;align=center;verticalAlign=middle;whiteSpace=wrap;rounded=0;" vertex="1" parent="1">
          <mxGeometry x="352" y="-10" width="156" height="110" as="geometry" />
        </mxCell>
        <mxCell id="njZE0WP8KrkA1C3F5cwu-22" value="- create staff/student&lt;br&gt;- delete staff/student&lt;br&gt;- update staff/student&lt;br&gt;- assign permission&lt;br&gt;- give notice" style="text;html=1;strokeColor=none;fillColor=none;align=center;verticalAlign=middle;whiteSpace=wrap;rounded=0;" vertex="1" parent="1">
          <mxGeometry x="460" y="110" width="156" height="110" as="geometry" />
        </mxCell>
        <mxCell id="njZE0WP8KrkA1C3F5cwu-23" value="- take attendance&lt;br&gt;- give marks&lt;br&gt;-give home work&lt;br&gt;- create routine" style="text;html=1;strokeColor=none;fillColor=none;align=center;verticalAlign=middle;whiteSpace=wrap;rounded=0;" vertex="1" parent="1">
          <mxGeometry x="560" y="210" width="156" height="110" as="geometry" />
        </mxCell>
        <mxCell id="njZE0WP8KrkA1C3F5cwu-24" value="- submit home work&lt;br&gt;- see notice&lt;br&gt;- see marks&lt;br&gt;- see attendance" style="text;html=1;strokeColor=none;fillColor=none;align=center;verticalAlign=middle;whiteSpace=wrap;rounded=0;" vertex="1" parent="1">
          <mxGeometry x="640" y="340" width="156" height="110" as="geometry" />
        </mxCell>
        <mxCell id="njZE0WP8KrkA1C3F5cwu-26" value="" style="endArrow=classic;html=1;rounded=0;exitX=0.328;exitY=1.025;exitDx=0;exitDy=0;exitPerimeter=0;entryX=-0.052;entryY=0.637;entryDx=0;entryDy=0;entryPerimeter=0;" edge="1" parent="1" source="njZE0WP8KrkA1C3F5cwu-2" target="njZE0WP8KrkA1C3F5cwu-16">
          <mxGeometry width="50" height="50" relative="1" as="geometry">
            <mxPoint x="380" y="420" as="sourcePoint" />
            <mxPoint x="430" y="370" as="targetPoint" />
            <Array as="points">
              <mxPoint x="199" y="150" />
              <mxPoint x="199" y="200" />
            </Array>
          </mxGeometry>
        </mxCell>
        <mxCell id="njZE0WP8KrkA1C3F5cwu-27" value="" style="endArrow=classic;html=1;rounded=0;exitX=0.328;exitY=1.025;exitDx=0;exitDy=0;exitPerimeter=0;entryX=-0.052;entryY=0.637;entryDx=0;entryDy=0;entryPerimeter=0;" edge="1" parent="1">
          <mxGeometry width="50" height="50" relative="1" as="geometry">
            <mxPoint x="320" y="240" as="sourcePoint" />
            <mxPoint x="396" y="318" as="targetPoint" />
            <Array as="points">
              <mxPoint x="320" y="317" />
            </Array>
          </mxGeometry>
        </mxCell>
        <mxCell id="njZE0WP8KrkA1C3F5cwu-28" value="" style="endArrow=classic;html=1;rounded=0;exitX=0.328;exitY=1.025;exitDx=0;exitDy=0;exitPerimeter=0;entryX=-0.052;entryY=0.637;entryDx=0;entryDy=0;entryPerimeter=0;" edge="1" parent="1">
          <mxGeometry width="50" height="50" relative="1" as="geometry">
            <mxPoint x="440" y="360" as="sourcePoint" />
            <mxPoint x="516" y="438" as="targetPoint" />
            <Array as="points">
              <mxPoint x="440" y="437" />
            </Array>
          </mxGeometry>
        </mxCell>
      </root>
    </mxGraphModel>
  </diagram>
</mxfile>
